# xmcd
#
# Track frame offsets: 
#        150
#        18527
#        36765
#        53803
#        69889
#        86392
#        103907
#        108180
#        128295
#        152493
#        157103
#        173605
#        190511
#        203128
#        218883
#        232649
#        251091
#        264591
#        272471
#        287045
#
# Disc length: 4106 seconds
#
# Revision: 0
# Processed by: cddbd v1.5.2PL0 Copyright (c) Steve Scherf et al.
# Submitted via: ExactAudioCopyFreeDBPlugin 1.0
#
DISCID=00100814
DTITLE=Bambu - ...One Rifle Per Family
DYEAR=2012
DGENRE=Hip-Hop
TTITLE0=Bronze Watch
TTITLE1=I Beg Of You
TTITLE2=So Many
TTITLE3=Rent Money ft. Rocky Rivera
TTITLE4=Sermon
TTITLE5=Books ft. Prometheus Brown
TTITLE6=Kid
TTITLE7=Pops
TTITLE8=Moms
TTITLE9=Self Defense
TTITLE10=Upset the Setup ft. Killer Mike
TTITLE11=Massacre
TTITLE12=Boom
TTITLE13=Pepper Spray
TTITLE14=Lean
TTITLE15=Orosi
TTITLE16=Th Eshit ft. Sick Jacken
TTITLE17=Death Certificate
TTITLE18=Golden Era Shower ft. Dumbfounded, Drunken Tiger JK, Ruby Iba
TTITLE18=rra, Gloc9, and Omar Offendum
TTITLE19=Where You From
EXTD=
EXTT0=
EXTT1=
EXTT2=
EXTT3=
EXTT4=
EXTT5=
EXTT6=
EXTT7=
EXTT8=
EXTT9=
EXTT10=
EXTT11=
EXTT12=
EXTT13=
EXTT14=
EXTT15=
EXTT16=
EXTT17=
EXTT18=
EXTT19=
PLAYORDER=
